<mxfile host="app.diagrams.net" agent="Mozilla/5.0 (Windows NT 10.0; Win64; x64) AppleWebKit/537.36 (KHTML, like Gecko) Chrome/128.0.0.0 YaBrowser/24.10.0.0 Safari/537.36" version="25.0.3">
  <diagram name="Страница — 1" id="FZuVYSKQKKseB5JXQPXO">
    <mxGraphModel dx="1290" dy="567" grid="1" gridSize="10" guides="1" tooltips="1" connect="1" arrows="1" fold="1" page="1" pageScale="1" pageWidth="827" pageHeight="1169" math="0" shadow="0">
      <root>
        <mxCell id="0" />
        <mxCell id="1" parent="0" />
        <mxCell id="g7J_c9dn4xPf3BArOAEV-12" value="" style="edgeStyle=orthogonalEdgeStyle;rounded=0;orthogonalLoop=1;jettySize=auto;html=1;" parent="1" source="g7J_c9dn4xPf3BArOAEV-13" target="g7J_c9dn4xPf3BArOAEV-16" edge="1">
          <mxGeometry relative="1" as="geometry" />
        </mxCell>
        <mxCell id="g7J_c9dn4xPf3BArOAEV-13" value="Начало" style="strokeWidth=2;html=1;shape=mxgraph.flowchart.terminator;whiteSpace=wrap;" parent="1" vertex="1">
          <mxGeometry x="390" y="70" width="130" height="40" as="geometry" />
        </mxCell>
        <mxCell id="g7J_c9dn4xPf3BArOAEV-14" value="Конец" style="strokeWidth=2;html=1;shape=mxgraph.flowchart.terminator;whiteSpace=wrap;" parent="1" vertex="1">
          <mxGeometry x="390" y="570" width="130" height="40" as="geometry" />
        </mxCell>
        <mxCell id="g7J_c9dn4xPf3BArOAEV-15" value="" style="edgeStyle=orthogonalEdgeStyle;rounded=0;orthogonalLoop=1;jettySize=auto;html=1;" parent="1" source="g7J_c9dn4xPf3BArOAEV-16" target="g7J_c9dn4xPf3BArOAEV-18" edge="1">
          <mxGeometry relative="1" as="geometry" />
        </mxCell>
        <mxCell id="g7J_c9dn4xPf3BArOAEV-16" value="Ввод: Должности, Объекты" style="shape=parallelogram;perimeter=parallelogramPerimeter;whiteSpace=wrap;html=1;fixedSize=1;" parent="1" vertex="1">
          <mxGeometry x="360" y="150" width="190" height="60" as="geometry" />
        </mxCell>
        <mxCell id="g7J_c9dn4xPf3BArOAEV-17" value="" style="edgeStyle=orthogonalEdgeStyle;rounded=0;orthogonalLoop=1;jettySize=auto;html=1;" parent="1" source="g7J_c9dn4xPf3BArOAEV-18" target="g7J_c9dn4xPf3BArOAEV-20" edge="1">
          <mxGeometry relative="1" as="geometry" />
        </mxCell>
        <mxCell id="g7J_c9dn4xPf3BArOAEV-18" value="ПО обращается к документам объектов и должностей для генерации РМД" style="rounded=0;whiteSpace=wrap;html=1;" parent="1" vertex="1">
          <mxGeometry x="327.5" y="250" width="255" height="60" as="geometry" />
        </mxCell>
        <mxCell id="g7J_c9dn4xPf3BArOAEV-19" value="" style="edgeStyle=orthogonalEdgeStyle;rounded=0;orthogonalLoop=1;jettySize=auto;html=1;" parent="1" source="g7J_c9dn4xPf3BArOAEV-20" target="g7J_c9dn4xPf3BArOAEV-22" edge="1">
          <mxGeometry relative="1" as="geometry" />
        </mxCell>
        <mxCell id="g7J_c9dn4xPf3BArOAEV-20" value="Создание файла документа Разграничительная матрица доступа" style="rounded=0;whiteSpace=wrap;html=1;" parent="1" vertex="1">
          <mxGeometry x="330" y="350" width="250" height="50" as="geometry" />
        </mxCell>
        <mxCell id="g7J_c9dn4xPf3BArOAEV-21" value="" style="edgeStyle=orthogonalEdgeStyle;rounded=0;orthogonalLoop=1;jettySize=auto;html=1;" parent="1" source="g7J_c9dn4xPf3BArOAEV-22" target="g7J_c9dn4xPf3BArOAEV-14" edge="1">
          <mxGeometry relative="1" as="geometry" />
        </mxCell>
        <mxCell id="g7J_c9dn4xPf3BArOAEV-22" value="Вывод: документа Разграничительная матрица доступа" style="shape=parallelogram;perimeter=parallelogramPerimeter;whiteSpace=wrap;html=1;fixedSize=1;" parent="1" vertex="1">
          <mxGeometry x="360" y="460" width="190" height="60" as="geometry" />
        </mxCell>
      </root>
    </mxGraphModel>
  </diagram>
</mxfile>
